solid ASCII
  facet normal -4.444180e-16 -1.000000e+00 -1.578890e-31
    outer loop
      vertex   -2.598076e+01 -1.500000e+01 0.000000e+00
      vertex   2.598076e+01 -1.500000e+01 0.000000e+00
      vertex   -2.598076e+01 -1.500000e+01 1.000000e+01
    endloop
  endfacet
  facet normal -4.444180e-16 -1.000000e+00 0.000000e+00
    outer loop
      vertex   -2.598076e+01 -1.500000e+01 1.000000e+01
      vertex   2.598076e+01 -1.500000e+01 0.000000e+00
      vertex   2.598076e+01 -1.500000e+01 1.000000e+01
    endloop
  endfacet
  facet normal -8.660254e-01 5.000000e-01 0.000000e+00
    outer loop
      vertex   0.000000e+00 3.000000e+01 0.000000e+00
      vertex   -2.598076e+01 -1.500000e+01 0.000000e+00
      vertex   0.000000e+00 3.000000e+01 1.000000e+01
    endloop
  endfacet
  facet normal -8.660254e-01 5.000000e-01 -4.375808e-16
    outer loop
      vertex   0.000000e+00 3.000000e+01 1.000000e+01
      vertex   -2.598076e+01 -1.500000e+01 0.000000e+00
      vertex   -2.598076e+01 -1.500000e+01 1.000000e+01
    endloop
  endfacet
  facet normal 8.660254e-01 5.000000e-01 -0.000000e+00
    outer loop
      vertex   2.598076e+01 -1.500000e+01 0.000000e+00
      vertex   0.000000e+00 3.000000e+01 0.000000e+00
      vertex   2.598076e+01 -1.500000e+01 1.000000e+01
    endloop
  endfacet
  facet normal 8.660254e-01 5.000000e-01 0.000000e+00
    outer loop
      vertex   2.598076e+01 -1.500000e+01 1.000000e+01
      vertex   0.000000e+00 3.000000e+01 0.000000e+00
      vertex   0.000000e+00 3.000000e+01 1.000000e+01
    endloop
  endfacet
  facet normal 0.000000e+00 0.000000e+00 1.000000e+00
    outer loop
      vertex   2.598076e+01 -1.500000e+01 1.000000e+01
      vertex   0.000000e+00 3.000000e+01 1.000000e+01
      vertex   -2.598076e+01 -1.500000e+01 1.000000e+01
    endloop
  endfacet
  facet normal 0.000000e+00 -0.000000e+00 -1.000000e+00
    outer loop
      vertex   0.000000e+00 3.000000e+01 0.000000e+00
      vertex   2.598076e+01 -1.500000e+01 0.000000e+00
      vertex   -2.598076e+01 -1.500000e+01 0.000000e+00
    endloop
  endfacet
endsolid
