solid ASCII
  facet normal 0.000000e+00 1.000000e+00 -0.000000e+00
    outer loop
      vertex   1.100000e+01 2.100000e+01 0.000000e+00
      vertex   9.345669e-16 2.100000e+01 0.000000e+00
      vertex   1.100000e+01 2.100000e+01 3.100000e+01
    endloop
  endfacet
  facet normal 0.000000e+00 1.000000e+00 0.000000e+00
    outer loop
      vertex   1.100000e+01 2.100000e+01 3.100000e+01
      vertex   9.345669e-16 2.100000e+01 0.000000e+00
      vertex   9.345669e-16 2.100000e+01 3.100000e+01
    endloop
  endfacet
  facet normal 1.000000e+00 0.000000e+00 0.000000e+00
    outer loop
      vertex   1.100000e+01 0.000000e+00 0.000000e+00
      vertex   1.100000e+01 2.100000e+01 0.000000e+00
      vertex   1.100000e+01 0.000000e+00 3.100000e+01
    endloop
  endfacet
  facet normal 1.000000e+00 -0.000000e+00 0.000000e+00
    outer loop
      vertex   1.100000e+01 0.000000e+00 3.100000e+01
      vertex   1.100000e+01 2.100000e+01 0.000000e+00
      vertex   1.100000e+01 2.100000e+01 3.100000e+01
    endloop
  endfacet
  facet normal 0.000000e+00 -1.000000e+00 0.000000e+00
    outer loop
      vertex   0.000000e+00 0.000000e+00 0.000000e+00
      vertex   1.100000e+01 0.000000e+00 0.000000e+00
      vertex   0.000000e+00 0.000000e+00 3.100000e+01
    endloop
  endfacet
  facet normal 0.000000e+00 -1.000000e+00 0.000000e+00
    outer loop
      vertex   0.000000e+00 0.000000e+00 3.100000e+01
      vertex   1.100000e+01 0.000000e+00 0.000000e+00
      vertex   1.100000e+01 0.000000e+00 3.100000e+01
    endloop
  endfacet
  facet normal -1.000000e+00 4.450319e-17 0.000000e+00
    outer loop
      vertex   9.345669e-16 2.100000e+01 0.000000e+00
      vertex   0.000000e+00 0.000000e+00 0.000000e+00
      vertex   9.345669e-16 2.100000e+01 3.100000e+01
    endloop
  endfacet
  facet normal -1.000000e+00 4.450319e-17 0.000000e+00
    outer loop
      vertex   9.345669e-16 2.100000e+01 3.100000e+01
      vertex   0.000000e+00 0.000000e+00 0.000000e+00
      vertex   0.000000e+00 0.000000e+00 3.100000e+01
    endloop
  endfacet
  facet normal 0.000000e+00 0.000000e+00 1.000000e+00
    outer loop
      vertex   0.000000e+00 0.000000e+00 3.100000e+01
      vertex   1.100000e+01 0.000000e+00 3.100000e+01
      vertex   9.345669e-16 2.100000e+01 3.100000e+01
    endloop
  endfacet
  facet normal -0.000000e+00 0.000000e+00 1.000000e+00
    outer loop
      vertex   9.345669e-16 2.100000e+01 3.100000e+01
      vertex   1.100000e+01 0.000000e+00 3.100000e+01
      vertex   1.100000e+01 2.100000e+01 3.100000e+01
    endloop
  endfacet
  facet normal 0.000000e+00 -0.000000e+00 -1.000000e+00
    outer loop
      vertex   9.345669e-16 2.100000e+01 0.000000e+00
      vertex   1.100000e+01 2.100000e+01 0.000000e+00
      vertex   0.000000e+00 0.000000e+00 0.000000e+00
    endloop
  endfacet
  facet normal 0.000000e+00 0.000000e+00 -1.000000e+00
    outer loop
      vertex   0.000000e+00 0.000000e+00 0.000000e+00
      vertex   1.100000e+01 2.100000e+01 0.000000e+00
      vertex   1.100000e+01 0.000000e+00 0.000000e+00
    endloop
  endfacet
endsolid
